<svg width="1125" height="288" viewBox="0 0 1125 288" fill="none" xmlns="http://www.w3.org/2000/svg">
<mask id="path-1-outside-1_422_508" maskUnits="userSpaceOnUse" x="-0.558105" y="-1" width="1126" height="290" fill="black">
<rect fill="white" x="-0.558105" y="-1" width="1126" height="290"/>
<path d="M154.842 284H110.442L102.842 233.2H48.8419L41.2419 284H0.841895L45.6419 3.99998H110.042L154.842 284ZM54.4419 195.2H96.8419L75.6419 53.6L54.4419 195.2ZM175.333 3.99998H219.333V284H175.333V3.99998ZM343.504 284C342.971 282.133 342.438 280.4 341.904 278.8C341.371 277.2 340.838 275.2 340.304 272.8C340.038 270.4 339.771 267.333 339.504 263.6C339.504 259.867 339.504 255.2 339.504 249.6V205.6C339.504 192.533 337.238 183.333 332.704 178C328.171 172.667 320.838 170 310.704 170H295.504V284H251.504V3.99998H317.904C340.838 3.99998 357.371 9.33332 367.504 20C377.904 30.6667 383.104 46.8 383.104 68.4V90.4C383.104 119.2 373.504 138.133 354.304 147.2C365.504 151.733 373.104 159.2 377.104 169.6C381.371 179.733 383.504 192.133 383.504 206.8V250C383.504 256.933 383.771 263.067 384.304 268.4C384.838 273.467 386.171 278.667 388.304 284H343.504ZM295.504 44V130H312.704C320.971 130 327.371 127.867 331.904 123.6C336.704 119.333 339.104 111.6 339.104 100.4V72.8C339.104 62.6667 337.238 55.3333 333.504 50.8C330.038 46.2667 324.438 44 316.704 44H295.504ZM596.551 3.99998V43.2L512.951 244H596.551V284H467.751V244.8L551.351 44H471.751V3.99998H596.551ZM662.998 219.6C662.998 229.733 664.998 236.933 668.998 241.2C673.265 245.2 678.865 247.2 685.798 247.2C692.731 247.2 698.198 245.2 702.198 241.2C706.465 236.933 708.598 229.733 708.598 219.6V68.4C708.598 58.2667 706.465 51.2 702.198 47.2C698.198 42.9333 692.731 40.8 685.798 40.8C678.865 40.8 673.265 42.9333 668.998 47.2C664.998 51.2 662.998 58.2667 662.998 68.4V219.6ZM618.998 71.2C618.998 48.5333 624.731 31.2 636.198 19.2C647.665 6.93332 664.198 0.799998 685.798 0.799998C707.398 0.799998 723.931 6.93332 735.398 19.2C746.865 31.2 752.598 48.5333 752.598 71.2V216.8C752.598 239.467 746.865 256.933 735.398 269.2C723.931 281.2 707.398 287.2 685.798 287.2C664.198 287.2 647.665 281.2 636.198 269.2C624.731 256.933 618.998 239.467 618.998 216.8V71.2ZM821.592 219.6C821.592 229.733 823.592 236.933 827.592 241.2C831.859 245.2 837.459 247.2 844.392 247.2C851.325 247.2 856.792 245.2 860.792 241.2C865.059 236.933 867.192 229.733 867.192 219.6V68.4C867.192 58.2667 865.059 51.2 860.792 47.2C856.792 42.9333 851.325 40.8 844.392 40.8C837.459 40.8 831.859 42.9333 827.592 47.2C823.592 51.2 821.592 58.2667 821.592 68.4V219.6ZM777.592 71.2C777.592 48.5333 783.325 31.2 794.792 19.2C806.259 6.93332 822.792 0.799998 844.392 0.799998C865.992 0.799998 882.525 6.93332 893.992 19.2C905.459 31.2 911.192 48.5333 911.192 71.2V216.8C911.192 239.467 905.459 256.933 893.992 269.2C882.525 281.2 865.992 287.2 844.392 287.2C822.792 287.2 806.259 281.2 794.792 269.2C783.325 256.933 777.592 239.467 777.592 216.8V71.2ZM1032.99 202.8L1062.99 3.99998H1124.19V284H1082.59V83.2L1052.19 284H1010.59L977.786 86V284H939.386V3.99998H1000.59L1032.99 202.8Z"/>
</mask>
<path d="M154.842 284V285H156.015L155.829 283.842L154.842 284ZM110.442 284L109.453 284.148L109.58 285H110.442V284ZM102.842 233.2L103.831 233.052L103.703 232.2H102.842V233.2ZM48.8419 233.2V232.2H47.9804L47.8529 233.052L48.8419 233.2ZM41.2419 284V285H42.1034L42.2309 284.148L41.2419 284ZM0.841895 284L-0.145546 283.842L-0.330824 285H0.841895V284ZM45.6419 3.99998V2.99998H44.7892L44.6545 3.84199L45.6419 3.99998ZM110.042 3.99998L111.029 3.84199L110.895 2.99998H110.042V3.99998ZM54.4419 195.2L53.4529 195.052L53.281 196.2H54.4419V195.2ZM96.8419 195.2V196.2H98.0028L97.8309 195.052L96.8419 195.2ZM75.6419 53.6L76.6309 53.4519H74.6529L75.6419 53.6ZM154.842 283H110.442V285H154.842V283ZM111.431 283.852L103.831 233.052L101.853 233.348L109.453 284.148L111.431 283.852ZM102.842 232.2H48.8419V234.2H102.842V232.2ZM47.8529 233.052L40.2529 283.852L42.2309 284.148L49.8309 233.348L47.8529 233.052ZM41.2419 283H0.841895V285H41.2419V283ZM1.82934 284.158L46.6293 4.15797L44.6545 3.84199L-0.145546 283.842L1.82934 284.158ZM45.6419 4.99998H110.042V2.99998H45.6419V4.99998ZM109.054 4.15797L153.854 284.158L155.829 283.842L111.029 3.84199L109.054 4.15797ZM54.4419 196.2H96.8419V194.2H54.4419V196.2ZM97.8309 195.052L76.6309 53.4519L74.6529 53.7481L95.8529 195.348L97.8309 195.052ZM74.6529 53.4519L53.4529 195.052L55.4309 195.348L76.6309 53.7481L74.6529 53.4519ZM175.333 3.99998V2.99998H174.333V3.99998H175.333ZM219.333 3.99998H220.333V2.99998H219.333V3.99998ZM219.333 284V285H220.333V284H219.333ZM175.333 284H174.333V285H175.333V284ZM175.333 4.99998H219.333V2.99998H175.333V4.99998ZM218.333 3.99998V284H220.333V3.99998H218.333ZM219.333 283H175.333V285H219.333V283ZM176.333 284V3.99998H174.333V284H176.333ZM343.504 284L342.543 284.275L342.75 285H343.504V284ZM341.904 278.8L340.956 279.116L340.956 279.116L341.904 278.8ZM340.304 272.8L339.311 272.91L339.316 272.964L339.328 273.017L340.304 272.8ZM339.504 263.6H338.504V263.636L338.507 263.671L339.504 263.6ZM332.704 178L333.466 177.352L332.704 178ZM295.504 170V169H294.504V170H295.504ZM295.504 284V285H296.504V284H295.504ZM251.504 284H250.504V285H251.504V284ZM251.504 3.99998V2.99998H250.504V3.99998H251.504ZM367.504 20L366.779 20.6888L366.788 20.6981L367.504 20ZM354.304 147.2L353.877 146.296L351.813 147.27L353.929 148.127L354.304 147.2ZM377.104 169.6L376.171 169.959L376.177 169.974L376.183 169.988L377.104 169.6ZM384.304 268.4L383.309 268.5L383.31 268.505L384.304 268.4ZM388.304 284V285H389.781L389.233 283.629L388.304 284ZM295.504 44V43H294.504V44H295.504ZM295.504 130H294.504V131H295.504V130ZM331.904 123.6L331.24 122.853L331.229 122.862L331.219 122.872L331.904 123.6ZM333.504 50.8L332.71 51.4074L332.721 51.4218L332.732 51.4357L333.504 50.8ZM344.466 283.725C343.929 281.847 343.392 280.099 342.853 278.484L340.956 279.116C341.484 280.701 342.013 282.42 342.543 284.275L344.466 283.725ZM342.853 278.484C342.334 276.927 341.81 274.963 341.281 272.583L339.328 273.017C339.866 275.437 340.408 277.473 340.956 279.116L342.853 278.484ZM341.298 272.69C341.034 270.308 340.768 267.255 340.502 263.529L338.507 263.671C338.774 267.411 339.042 270.492 339.311 272.91L341.298 272.69ZM340.504 263.6C340.504 263.593 340.504 263.585 340.504 263.578C340.504 263.571 340.504 263.564 340.504 263.556C340.504 263.549 340.504 263.542 340.504 263.534C340.504 263.527 340.504 263.52 340.504 263.512C340.504 263.505 340.504 263.498 340.504 263.49C340.504 263.483 340.504 263.476 340.504 263.468C340.504 263.461 340.504 263.454 340.504 263.446C340.504 263.439 340.504 263.432 340.504 263.424C340.504 263.417 340.504 263.41 340.504 263.402C340.504 263.395 340.504 263.388 340.504 263.38C340.504 263.373 340.504 263.365 340.504 263.358C340.504 263.351 340.504 263.343 340.504 263.336C340.504 263.329 340.504 263.321 340.504 263.314C340.504 263.306 340.504 263.299 340.504 263.292C340.504 263.284 340.504 263.277 340.504 263.269C340.504 263.262 340.504 263.255 340.504 263.247C340.504 263.24 340.504 263.232 340.504 263.225C340.504 263.218 340.504 263.21 340.504 263.203C340.504 263.195 340.504 263.188 340.504 263.181C340.504 263.173 340.504 263.166 340.504 263.158C340.504 263.151 340.504 263.143 340.504 263.136C340.504 263.128 340.504 263.121 340.504 263.114C340.504 263.106 340.504 263.099 340.504 263.091C340.504 263.084 340.504 263.076 340.504 263.069C340.504 263.061 340.504 263.054 340.504 263.046C340.504 263.039 340.504 263.032 340.504 263.024C340.504 263.017 340.504 263.009 340.504 263.002C340.504 262.994 340.504 262.987 340.504 262.979C340.504 262.972 340.504 262.964 340.504 262.957C340.504 262.949 340.504 262.942 340.504 262.934C340.504 262.927 340.504 262.919 340.504 262.912C340.504 262.904 340.504 262.897 340.504 262.889C340.504 262.882 340.504 262.874 340.504 262.866C340.504 262.859 340.504 262.851 340.504 262.844C340.504 262.836 340.504 262.829 340.504 262.821C340.504 262.814 340.504 262.806 340.504 262.799C340.504 262.791 340.504 262.784 340.504 262.776C340.504 262.768 340.504 262.761 340.504 262.753C340.504 262.746 340.504 262.738 340.504 262.731C340.504 262.723 340.504 262.715 340.504 262.708C340.504 262.7 340.504 262.693 340.504 262.685C340.504 262.678 340.504 262.67 340.504 262.662C340.504 262.655 340.504 262.647 340.504 262.64C340.504 262.632 340.504 262.624 340.504 262.617C340.504 262.609 340.504 262.602 340.504 262.594C340.504 262.586 340.504 262.579 340.504 262.571C340.504 262.564 340.504 262.556 340.504 262.548C340.504 262.541 340.504 262.533 340.504 262.525C340.504 262.518 340.504 262.51 340.504 262.502C340.504 262.495 340.504 262.487 340.504 262.48C340.504 262.472 340.504 262.464 340.504 262.457C340.504 262.449 340.504 262.441 340.504 262.434C340.504 262.426 340.504 262.418 340.504 262.411C340.504 262.403 340.504 262.395 340.504 262.388C340.504 262.38 340.504 262.372 340.504 262.365C340.504 262.357 340.504 262.349 340.504 262.342C340.504 262.334 340.504 262.326 340.504 262.318C340.504 262.311 340.504 262.303 340.504 262.295C340.504 262.288 340.504 262.28 340.504 262.272C340.504 262.264 340.504 262.257 340.504 262.249C340.504 262.241 340.504 262.234 340.504 262.226C340.504 262.218 340.504 262.21 340.504 262.203C340.504 262.195 340.504 262.187 340.504 262.179C340.504 262.172 340.504 262.164 340.504 262.156C340.504 262.149 340.504 262.141 340.504 262.133C340.504 262.125 340.504 262.117 340.504 262.11C340.504 262.102 340.504 262.094 340.504 262.086C340.504 262.079 340.504 262.071 340.504 262.063C340.504 262.055 340.504 262.048 340.504 262.04C340.504 262.032 340.504 262.024 340.504 262.016C340.504 262.009 340.504 262.001 340.504 261.993C340.504 261.985 340.504 261.977 340.504 261.97C340.504 261.962 340.504 261.954 340.504 261.946C340.504 261.938 340.504 261.931 340.504 261.923C340.504 261.915 340.504 261.907 340.504 261.899C340.504 261.891 340.504 261.884 340.504 261.876C340.504 261.868 340.504 261.86 340.504 261.852C340.504 261.844 340.504 261.837 340.504 261.829C340.504 261.821 340.504 261.813 340.504 261.805C340.504 261.797 340.504 261.79 340.504 261.782C340.504 261.774 340.504 261.766 340.504 261.758C340.504 261.75 340.504 261.742 340.504 261.734C340.504 261.727 340.504 261.719 340.504 261.711C340.504 261.703 340.504 261.695 340.504 261.687C340.504 261.679 340.504 261.671 340.504 261.663C340.504 261.656 340.504 261.648 340.504 261.64C340.504 261.632 340.504 261.624 340.504 261.616C340.504 261.608 340.504 261.6 340.504 261.592C340.504 261.584 340.504 261.576 340.504 261.569C340.504 261.561 340.504 261.553 340.504 261.545C340.504 261.537 340.504 261.529 340.504 261.521C340.504 261.513 340.504 261.505 340.504 261.497C340.504 261.489 340.504 261.481 340.504 261.473C340.504 261.465 340.504 261.457 340.504 261.449C340.504 261.441 340.504 261.433 340.504 261.425C340.504 261.418 340.504 261.41 340.504 261.402C340.504 261.394 340.504 261.386 340.504 261.378C340.504 261.37 340.504 261.362 340.504 261.354C340.504 261.346 340.504 261.338 340.504 261.33C340.504 261.322 340.504 261.314 340.504 261.306C340.504 261.298 340.504 261.29 340.504 261.282C340.504 261.274 340.504 261.266 340.504 261.258C340.504 261.25 340.504 261.242 340.504 261.234C340.504 261.226 340.504 261.218 340.504 261.209C340.504 261.201 340.504 261.193 340.504 261.185C340.504 261.177 340.504 261.169 340.504 261.161C340.504 261.153 340.504 261.145 340.504 261.137C340.504 261.129 340.504 261.121 340.504 261.113C340.504 261.105 340.504 261.097 340.504 261.089C340.504 261.081 340.504 261.073 340.504 261.065C340.504 261.056 340.504 261.048 340.504 261.04C340.504 261.032 340.504 261.024 340.504 261.016C340.504 261.008 340.504 261 340.504 260.992C340.504 260.984 340.504 260.976 340.504 260.967C340.504 260.959 340.504 260.951 340.504 260.943C340.504 260.935 340.504 260.927 340.504 260.919C340.504 260.911 340.504 260.903 340.504 260.894C340.504 260.886 340.504 260.878 340.504 260.87C340.504 260.862 340.504 260.854 340.504 260.846C340.504 260.837 340.504 260.829 340.504 260.821C340.504 260.813 340.504 260.805 340.504 260.797C340.504 260.789 340.504 260.78 340.504 260.772C340.504 260.764 340.504 260.756 340.504 260.748C340.504 260.74 340.504 260.731 340.504 260.723C340.504 260.715 340.504 260.707 340.504 260.699C340.504 260.691 340.504 260.682 340.504 260.674C340.504 260.666 340.504 260.658 340.504 260.65C340.504 260.641 340.504 260.633 340.504 260.625C340.504 260.617 340.504 260.609 340.504 260.6C340.504 260.592 340.504 260.584 340.504 260.576C340.504 260.568 340.504 260.559 340.504 260.551C340.504 260.543 340.504 260.535 340.504 260.526C340.504 260.518 340.504 260.51 340.504 260.502C340.504 260.493 340.504 260.485 340.504 260.477C340.504 260.469 340.504 260.46 340.504 260.452C340.504 260.444 340.504 260.436 340.504 260.427C340.504 260.419 340.504 260.411 340.504 260.403C340.504 260.394 340.504 260.386 340.504 260.378C340.504 260.37 340.504 260.361 340.504 260.353C340.504 260.345 340.504 260.336 340.504 260.328C340.504 260.32 340.504 260.312 340.504 260.303C340.504 260.295 340.504 260.287 340.504 260.278C340.504 260.27 340.504 260.262 340.504 260.253C340.504 260.245 340.504 260.237 340.504 260.229C340.504 260.22 340.504 260.212 340.504 260.204C340.504 260.195 340.504 260.187 340.504 260.179C340.504 260.17 340.504 260.162 340.504 260.154C340.504 260.145 340.504 260.137 340.504 260.129C340.504 260.12 340.504 260.112 340.504 260.103C340.504 260.095 340.504 260.087 340.504 260.078C340.504 260.07 340.504 260.062 340.504 260.053C340.504 260.045 340.504 260.037 340.504 260.028C340.504 260.02 340.504 260.011 340.504 260.003C340.504 259.995 340.504 259.986 340.504 259.978C340.504 259.97 340.504 259.961 340.504 259.953C340.504 259.944 340.504 259.936 340.504 259.928C340.504 259.919 340.504 259.911 340.504 259.902C340.504 259.894 340.504 259.886 340.504 259.877C340.504 259.869 340.504 259.86 340.504 259.852C340.504 259.843 340.504 259.835 340.504 259.827C340.504 259.818 340.504 259.81 340.504 259.801C340.504 259.793 340.504 259.784 340.504 259.776C340.504 259.767 340.504 259.759 340.504 259.751C340.504 259.742 340.504 259.734 340.504 259.725C340.504 259.717 340.504 259.708 340.504 259.7C340.504 259.691 340.504 259.683 340.504 259.674C340.504 259.666 340.504 259.657 340.504 259.649C340.504 259.641 340.504 259.632 340.504 259.624C340.504 259.615 340.504 259.607 340.504 259.598C340.504 259.59 340.504 259.581 340.504 259.573C340.504 259.564 340.504 259.556 340.504 259.547C340.504 259.539 340.504 259.53 340.504 259.522C340.504 259.513 340.504 259.504 340.504 259.496C340.504 259.487 340.504 259.479 340.504 259.47C340.504 259.462 340.504 259.453 340.504 259.445C340.504 259.436 340.504 259.428 340.504 259.419C340.504 259.411 340.504 259.402 340.504 259.393C340.504 259.385 340.504 259.376 340.504 259.368C340.504 259.359 340.504 259.351 340.504 259.342C340.504 259.334 340.504 259.325 340.504 259.316C340.504 259.308 340.504 259.299 340.504 259.291C340.504 259.282 340.504 259.274 340.504 259.265C340.504 259.256 340.504 259.248 340.504 259.239C340.504 259.231 340.504 259.222 340.504 259.213C340.504 259.205 340.504 259.196 340.504 259.188C340.504 259.179 340.504 259.17 340.504 259.162C340.504 259.153 340.504 259.144 340.504 259.136C340.504 259.127 340.504 259.119 340.504 259.11C340.504 259.101 340.504 259.093 340.504 259.084C340.504 259.075 340.504 259.067 340.504 259.058C340.504 259.05 340.504 259.041 340.504 259.032C340.504 259.024 340.504 259.015 340.504 259.006C340.504 258.998 340.504 258.989 340.504 258.98C340.504 258.972 340.504 258.963 340.504 258.954C340.504 258.946 340.504 258.937 340.504 258.928C340.504 258.92 340.504 258.911 340.504 258.902C340.504 258.893 340.504 258.885 340.504 258.876C340.504 258.867 340.504 258.859 340.504 258.85C340.504 258.841 340.504 258.833 340.504 258.824C340.504 258.815 340.504 258.806 340.504 258.798C340.504 258.789 340.504 258.78 340.504 258.772C340.504 258.763 340.504 258.754 340.504 258.745C340.504 258.737 340.504 258.728 340.504 258.719C340.504 258.71 340.504 258.702 340.504 258.693C340.504 258.684 340.504 258.675 340.504 258.667C340.504 258.658 340.504 258.649 340.504 258.64C340.504 258.632 340.504 258.623 340.504 258.614C340.504 258.605 340.504 258.597 340.504 258.588C340.504 258.579 340.504 258.57 340.504 258.562C340.504 258.553 340.504 258.544 340.504 258.535C340.504 258.526 340.504 258.518 340.504 258.509C340.504 258.5 340.504 258.491 340.504 258.482C340.504 258.474 340.504 258.465 340.504 258.456C340.504 258.447 340.504 258.438 340.504 258.43C340.504 258.421 340.504 258.412 340.504 258.403C340.504 258.394 340.504 258.385 340.504 258.377C340.504 258.368 340.504 258.359 340.504 258.35C340.504 258.341 340.504 258.332 340.504 258.324C340.504 258.315 340.504 258.306 340.504 258.297C340.504 258.288 340.504 258.279 340.504 258.271C340.504 258.262 340.504 258.253 340.504 258.244C340.504 258.235 340.504 258.226 340.504 258.217C340.504 258.208 340.504 258.2 340.504 258.191C340.504 258.182 340.504 258.173 340.504 258.164C340.504 258.155 340.504 258.146 340.504 258.137C340.504 258.128 340.504 258.12 340.504 258.111C340.504 258.102 340.504 258.093 340.504 258.084C340.504 258.075 340.504 258.066 340.504 258.057C340.504 258.048 340.504 258.039 340.504 258.03C340.504 258.022 340.504 258.013 340.504 258.004C340.504 257.995 340.504 257.986 340.504 257.977C340.504 257.968 340.504 257.959 340.504 257.95C340.504 257.941 340.504 257.932 340.504 257.923C340.504 257.914 340.504 257.905 340.504 257.896C340.504 257.887 340.504 257.878 340.504 257.87C340.504 257.861 340.504 257.852 340.504 257.843C340.504 257.834 340.504 257.825 340.504 257.816C340.504 257.807 340.504 257.798 340.504 257.789C340.504 257.78 340.504 257.771 340.504 257.762C340.504 257.753 340.504 257.744 340.504 257.735C340.504 257.726 340.504 257.717 340.504 257.708C340.504 257.699 340.504 257.69 340.504 257.681C340.504 257.672 340.504 257.663 340.504 257.654C340.504 257.645 340.504 257.636 340.504 257.627C340.504 257.618 340.504 257.609 340.504 257.599C340.504 257.59 340.504 257.581 340.504 257.572C340.504 257.563 340.504 257.554 340.504 257.545C340.504 257.536 340.504 257.527 340.504 257.518C340.504 257.509 340.504 257.5 340.504 257.491C340.504 257.482 340.504 257.473 340.504 257.464C340.504 257.455 340.504 257.446 340.504 257.436C340.504 257.427 340.504 257.418 340.504 257.409C340.504 257.4 340.504 257.391 340.504 257.382C340.504 257.373 340.504 257.364 340.504 257.355C340.504 257.346 340.504 257.336 340.504 257.327C340.504 257.318 340.504 257.309 340.504 257.3C340.504 257.291 340.504 257.282 340.504 257.273C340.504 257.264 340.504 257.254 340.504 257.245C340.504 257.236 340.504 257.227 340.504 257.218C340.504 257.209 340.504 257.2 340.504 257.19C340.504 257.181 340.504 257.172 340.504 257.163C340.504 257.154 340.504 257.145 340.504 257.136C340.504 257.126 340.504 257.117 340.504 257.108C340.504 257.099 340.504 257.09 340.504 257.081C340.504 257.071 340.504 257.062 340.504 257.053C340.504 257.044 340.504 257.035 340.504 257.025C340.504 257.016 340.504 257.007 340.504 256.998C340.504 256.989 340.504 256.98 340.504 256.97C340.504 256.961 340.504 256.952 340.504 256.943C340.504 256.934 340.504 256.924 340.504 256.915C340.504 256.906 340.504 256.897 340.504 256.887C340.504 256.878 340.504 256.869 340.504 256.86C340.504 256.851 340.504 256.841 340.504 256.832C340.504 256.823 340.504 256.814 340.504 256.804C340.504 256.795 340.504 256.786 340.504 256.777C340.504 256.767 340.504 256.758 340.504 256.749C340.504 256.74 340.504 256.73 340.504 256.721C340.504 256.712 340.504 256.703 340.504 256.693C340.504 256.684 340.504 256.675 340.504 256.665C340.504 256.656 340.504 256.647 340.504 256.638C340.504 256.628 340.504 256.619 340.504 256.61C340.504 256.6 340.504 256.591 340.504 256.582C340.504 256.573 340.504 256.563 340.504 256.554C340.504 256.545 340.504 256.535 340.504 256.526C340.504 256.517 340.504 256.507 340.504 256.498C340.504 256.489 340.504 256.479 340.504 256.47C340.504 256.461 340.504 256.451 340.504 256.442C340.504 256.433 340.504 256.423 340.504 256.414C340.504 256.405 340.504 256.395 340.504 256.386C340.504 256.377 340.504 256.367 340.504 256.358C340.504 256.349 340.504 256.339 340.504 256.33C340.504 256.321 340.504 256.311 340.504 256.302C340.504 256.292 340.504 256.283 340.504 256.274C340.504 256.264 340.504 256.255 340.504 256.246C340.504 256.236 340.504 256.227 340.504 256.217C340.504 256.208 340.504 256.199 340.504 256.189C340.504 256.18 340.504 256.17 340.504 256.161C340.504 256.152 340.504 256.142 340.504 256.133C340.504 256.123 340.504 256.114 340.504 256.104C340.504 256.095 340.504 256.086 340.504 256.076C340.504 256.067 340.504 256.057 340.504 256.048C340.504 256.038 340.504 256.029 340.504 256.02C340.504 256.01 340.504 256.001 340.504 255.991C340.504 255.982 340.504 255.972 340.504 255.963C340.504 255.953 340.504 255.944 340.504 255.935C340.504 255.925 340.504 255.916 340.504 255.906C340.504 255.897 340.504 255.887 340.504 255.878C340.504 255.868 340.504 255.859 340.504 255.849C340.504 255.84 340.504 255.83 340.504 255.821C340.504 255.811 340.504 255.802 340.504 255.792C340.504 255.783 340.504 255.773 340.504 255.764C340.504 255.754 340.504 255.745 340.504 255.735C340.504 255.726 340.504 255.716 340.504 255.707C340.504 255.697 340.504 255.688 340.504 255.678C340.504 255.669 340.504 255.659 340.504 255.65C340.504 255.64 340.504 255.63 340.504 255.621C340.504 255.611 340.504 255.602 340.504 255.592C340.504 255.583 340.504 255.573 340.504 255.564C340.504 255.554 340.504 255.545 340.504 255.535C340.504 255.525 340.504 255.516 340.504 255.506C340.504 255.497 340.504 255.487 340.504 255.478C340.504 255.468 340.504 255.458 340.504 255.449C340.504 255.439 340.504 255.43 340.504 255.42C340.504 255.41 340.504 255.401 340.504 255.391C340.504 255.382 340.504 255.372 340.504 255.362C340.504 255.353 340.504 255.343 340.504 255.334C340.504 255.324 340.504 255.314 340.504 255.305C340.504 255.295 340.504 255.286 340.504 255.276C340.504 255.266 340.504 255.257 340.504 255.247C340.504 255.237 340.504 255.228 340.504 255.218C340.504 255.208 340.504 255.199 340.504 255.189C340.504 255.179 340.504 255.17 340.504 255.16C340.504 255.151 340.504 255.141 340.504 255.131C340.504 255.122 340.504 255.112 340.504 255.102C340.504 255.093 340.504 255.083 340.504 255.073C340.504 255.064 340.504 255.054 340.504 255.044C340.504 255.034 340.504 255.025 340.504 255.015C340.504 255.005 340.504 254.996 340.504 254.986C340.504 254.976 340.504 254.967 340.504 254.957C340.504 254.947 340.504 254.937 340.504 254.928C340.504 254.918 340.504 254.908 340.504 254.899C340.504 254.889 340.504 254.879 340.504 254.869C340.504 254.86 340.504 254.85 340.504 254.84C340.504 254.831 340.504 254.821 340.504 254.811C340.504 254.801 340.504 254.792 340.504 254.782C340.504 254.772 340.504 254.762 340.504 254.753C340.504 254.743 340.504 254.733 340.504 254.723C340.504 254.714 340.504 254.704 340.504 254.694C340.504 254.684 340.504 254.674 340.504 254.665C340.504 254.655 340.504 254.645 340.504 254.635C340.504 254.626 340.504 254.616 340.504 254.606C340.504 254.596 340.504 254.586 340.504 254.577C340.504 254.567 340.504 254.557 340.504 254.547C340.504 254.537 340.504 254.528 340.504 254.518C340.504 254.508 340.504 254.498 340.504 254.488C340.504 254.478 340.504 254.469 340.504 254.459C340.504 254.449 340.504 254.439 340.504 254.429C340.504 254.419 340.504 254.41 340.504 254.4C340.504 254.39 340.504 254.38 340.504 254.37C340.504 254.36 340.504 254.351 340.504 254.341C340.504 254.331 340.504 254.321 340.504 254.311C340.504 254.301 340.504 254.291 340.504 254.282C340.504 254.272 340.504 254.262 340.504 254.252C340.504 254.242 340.504 254.232 340.504 254.222C340.504 254.212 340.504 254.203 340.504 254.193C340.504 254.183 340.504 254.173 340.504 254.163C340.504 254.153 340.504 254.143 340.504 254.133C340.504 254.123 340.504 254.113 340.504 254.104C340.504 254.094 340.504 254.084 340.504 254.074C340.504 254.064 340.504 254.054 340.504 254.044C340.504 254.034 340.504 254.024 340.504 254.014C340.504 254.004 340.504 253.994 340.504 253.984C340.504 253.974 340.504 253.965 340.504 253.955C340.504 253.945 340.504 253.935 340.504 253.925C340.504 253.915 340.504 253.905 340.504 253.895C340.504 253.885 340.504 253.875 340.504 253.865C340.504 253.855 340.504 253.845 340.504 253.835C340.504 253.825 340.504 253.815 340.504 253.805C340.504 253.795 340.504 253.785 340.504 253.775C340.504 253.765 340.504 253.755 340.504 253.745C340.504 253.735 340.504 253.725 340.504 253.715C340.504 253.705 340.504 253.695 340.504 253.685C340.504 253.675 340.504 253.665 340.504 253.655C340.504 253.645 340.504 253.635 340.504 253.625C340.504 253.615 340.504 253.605 340.504 253.595C340.504 253.585 340.504 253.575 340.504 253.565C340.504 253.555 340.504 253.545 340.504 253.535C340.504 253.525 340.504 253.515 340.504 253.505C340.504 253.494 340.504 253.484 340.504 253.474C340.504 253.464 340.504 253.454 340.504 253.444C340.504 253.434 340.504 253.424 340.504 253.414C340.504 253.404 340.504 253.394 340.504 253.384C340.504 253.374 340.504 253.364 340.504 253.353C340.504 253.343 340.504 253.333 340.504 253.323C340.504 253.313 340.504 253.303 340.504 253.293C340.504 253.283 340.504 253.273 340.504 253.263C340.504 253.252 340.504 253.242 340.504 253.232C340.504 253.222 340.504 253.212 340.504 253.202C340.504 253.192 340.504 253.182 340.504 253.171C340.504 253.161 340.504 253.151 340.504 253.141C340.504 253.131 340.504 253.121 340.504 253.111C340.504 253.1 340.504 253.09 340.504 253.08C340.504 253.07 340.504 253.06 340.504 253.05C340.504 253.039 340.504 253.029 340.504 253.019C340.504 253.009 340.504 252.999 340.504 252.989C340.504 252.978 340.504 252.968 340.504 252.958C340.504 252.948 340.504 252.938 340.504 252.928C340.504 252.917 340.504 252.907 340.504 252.897C340.504 252.887 340.504 252.877 340.504 252.866C340.504 252.856 340.504 252.846 340.504 252.836C340.504 252.826 340.504 252.815 340.504 252.805C340.504 252.795 340.504 252.785 340.504 252.774C340.504 252.764 340.504 252.754 340.504 252.744C340.504 252.734 340.504 252.723 340.504 252.713C340.504 252.703 340.504 252.693 340.504 252.682C340.504 252.672 340.504 252.662 340.504 252.652C340.504 252.641 340.504 252.631 340.504 252.621C340.504 252.611 340.504 252.6 340.504 252.59C340.504 252.58 340.504 252.569 340.504 252.559C340.504 252.549 340.504 252.539 340.504 252.528C340.504 252.518 340.504 252.508 340.504 252.497C340.504 252.487 340.504 252.477 340.504 252.467C340.504 252.456 340.504 252.446 340.504 252.436C340.504 252.425 340.504 252.415 340.504 252.405C340.504 252.394 340.504 252.384 340.504 252.374C340.504 252.364 340.504 252.353 340.504 252.343C340.504 252.333 340.504 252.322 340.504 252.312C340.504 252.302 340.504 252.291 340.504 252.281C340.504 252.271 340.504 252.26 340.504 252.25C340.504 252.24 340.504 252.229 340.504 252.219C340.504 252.208 340.504 252.198 340.504 252.188C340.504 252.177 340.504 252.167 340.504 252.157C340.504 252.146 340.504 252.136 340.504 252.126C340.504 252.115 340.504 252.105 340.504 252.094C340.504 252.084 340.504 252.074 340.504 252.063C340.504 252.053 340.504 252.042 340.504 252.032C340.504 252.022 340.504 252.011 340.504 252.001C340.504 251.99 340.504 251.98 340.504 251.97C340.504 251.959 340.504 251.949 340.504 251.938C340.504 251.928 340.504 251.918 340.504 251.907C340.504 251.897 340.504 251.886 340.504 251.876C340.504 251.865 340.504 251.855 340.504 251.845C340.504 251.834 340.504 251.824 340.504 251.813C340.504 251.803 340.504 251.792 340.504 251.782C340.504 251.771 340.504 251.761 340.504 251.75C340.504 251.74 340.504 251.73 340.504 251.719C340.504 251.709 340.504 251.698 340.504 251.688C340.504 251.677 340.504 251.667 340.504 251.656C340.504 251.646 340.504 251.635 340.504 251.625C340.504 251.614 340.504 251.604 340.504 251.593C340.504 251.583 340.504 251.572 340.504 251.562C340.504 251.551 340.504 251.541 340.504 251.53C340.504 251.52 340.504 251.509 340.504 251.499C340.504 251.488 340.504 251.478 340.504 251.467C340.504 251.457 340.504 251.446 340.504 251.436C340.504 251.425 340.504 251.415 340.504 251.404C340.504 251.393 340.504 251.383 340.504 251.372C340.504 251.362 340.504 251.351 340.504 251.341C340.504 251.33 340.504 251.32 340.504 251.309C340.504 251.298 340.504 251.288 340.504 251.277C340.504 251.267 340.504 251.256 340.504 251.246C340.504 251.235 340.504 251.225 340.504 251.214C340.504 251.203 340.504 251.193 340.504 251.182C340.504 251.172 340.504 251.161 340.504 251.15C340.504 251.14 340.504 251.129 340.504 251.119C340.504 251.108 340.504 251.097 340.504 251.087C340.504 251.076 340.504 251.066 340.504 251.055C340.504 251.044 340.504 251.034 340.504 251.023C340.504 251.012 340.504 251.002 340.504 250.991C340.504 250.981 340.504 250.97 340.504 250.959C340.504 250.949 340.504 250.938 340.504 250.927C340.504 250.917 340.504 250.906 340.504 250.895C340.504 250.885 340.504 250.874 340.504 250.863C340.504 250.853 340.504 250.842 340.504 250.831C340.504 250.821 340.504 250.81 340.504 250.799C340.504 250.789 340.504 250.778 340.504 250.767C340.504 250.757 340.504 250.746 340.504 250.735C340.504 250.725 340.504 250.714 340.504 250.703C340.504 250.693 340.504 250.682 340.504 250.671C340.504 250.66 340.504 250.65 340.504 250.639C340.504 250.628 340.504 250.618 340.504 250.607C340.504 250.596 340.504 250.585 340.504 250.575C340.504 250.564 340.504 250.553 340.504 250.543C340.504 250.532 340.504 250.521 340.504 250.51C340.504 250.5 340.504 250.489 340.504 250.478C340.504 250.467 340.504 250.457 340.504 250.446C340.504 250.435 340.504 250.424 340.504 250.414C340.504 250.403 340.504 250.392 340.504 250.381C340.504 250.371 340.504 250.36 340.504 250.349C340.504 250.338 340.504 250.327 340.504 250.317C340.504 250.306 340.504 250.295 340.504 250.284C340.504 250.274 340.504 250.263 340.504 250.252C340.504 250.241 340.504 250.23 340.504 250.22C340.504 250.209 340.504 250.198 340.504 250.187C340.504 250.176 340.504 250.166 340.504 250.155C340.504 250.144 340.504 250.133 340.504 250.122C340.504 250.111 340.504 250.101 340.504 250.09C340.504 250.079 340.504 250.068 340.504 250.057C340.504 250.046 340.504 250.036 340.504 250.025C340.504 250.014 340.504 250.003 340.504 249.992C340.504 249.981 340.504 249.971 340.504 249.96C340.504 249.949 340.504 249.938 340.504 249.927C340.504 249.916 340.504 249.905 340.504 249.894C340.504 249.884 340.504 249.873 340.504 249.862C340.504 249.851 340.504 249.84 340.504 249.829C340.504 249.818 340.504 249.807 340.504 249.796C340.504 249.786 340.504 249.775 340.504 249.764C340.504 249.753 340.504 249.742 340.504 249.731C340.504 249.72 340.504 249.709 340.504 249.698C340.504 249.687 340.504 249.677 340.504 249.666C340.504 249.655 340.504 249.644 340.504 249.633C340.504 249.622 340.504 249.611 340.504 249.6H338.504C338.504 249.611 338.504 249.622 338.504 249.633C338.504 249.644 338.504 249.655 338.504 249.666C338.504 249.677 338.504 249.687 338.504 249.698C338.504 249.709 338.504 249.72 338.504 249.731C338.504 249.742 338.504 249.753 338.504 249.764C338.504 249.775 338.504 249.786 338.504 249.796C338.504 249.807 338.504 249.818 338.504 249.829C338.504 249.84 338.504 249.851 338.504 249.862C338.504 249.873 338.504 249.884 338.504 249.894C338.504 249.905 338.504 249.916 338.504 249.927C338.504 249.938 338.504 249.949 338.504 249.96C338.504 249.971 338.504 249.981 338.504 249.992C338.504 250.003 338.504 250.014 338.504 250.025C338.504 250.036 338.504 250.046 338.504 250.057C338.504 250.068 338.504 250.079 338.504 250.09C338.504 250.101 338.504 250.111 338.504 250.122C338.504 250.133 338.504 250.144 338.504 250.155C338.504 250.166 338.504 250.176 338.504 250.187C338.504 250.198 338.504 250.209 338.504 250.22C338.504 250.23 338.504 250.241 338.504 250.252C338.504 250.263 338.504 250.274 338.504 250.284C338.504 250.295 338.504 250.306 338.504 250.317C338.504 250.327 338.504 250.338 338.504 250.349C338.504 250.36 338.504 250.371 338.504 250.381C338.504 250.392 338.504 250.403 338.504 250.414C338.504 250.424 338.504 250.435 338.504 250.446C338.504 250.457 338.504 250.467 338.504 250.478C338.504 250.489 338.504 250.5 338.504 250.51C338.504 250.521 338.504 250.532 338.504 250.543C338.504 250.553 338.504 250.564 338.504 250.575C338.504 250.585 338.504 250.596 338.504 250.607C338.504 250.618 338.504 250.628 338.504 250.639C338.504 250.65 338.504 250.66 338.504 250.671C338.504 250.682 338.504 250.693 338.504 250.703C338.504 250.714 338.504 250.725 338.504 250.735C338.504 250.746 338.504 250.757 338.504 250.767C338.504 250.778 338.504 250.789 338.504 250.799C338.504 250.81 338.504 250.821 338.504 250.831C338.504 250.842 338.504 250.853 338.504 250.863C338.504 250.874 338.504 250.885 338.504 250.895C338.504 250.906 338.504 250.917 338.504 250.927C338.504 250.938 338.504 250.949 338.504 250.959C338.504 250.97 338.504 250.981 338.504 250.991C338.504 251.002 338.504 251.012 338.504 251.023C338.504 251.034 338.504 251.044 338.504 251.055C338.504 251.066 338.504 251.076 338.504 251.087C338.504 251.097 338.504 251.108 338.504 251.119C338.504 251.129 338.504 251.14 338.504 251.15C338.504 251.161 338.504 251.172 338.504 251.182C338.504 251.193 338.504 251.203 338.504 251.214C338.504 251.225 338.504 251.235 338.504 251.246C338.504 251.256 338.504 251.267 338.504 251.277C338.504 251.288 338.504 251.298 338.504 251.309C338.504 251.32 338.504 251.33 338.504 251.341C338.504 251.351 338.504 251.362 338.504 251.372C338.504 251.383 338.504 251.393 338.504 251.404C338.504 251.415 338.504 251.425 338.504 251.436C338.504 251.446 338.504 251.457 338.504 251.467C338.504 251.478 338.504 251.488 338.504 251.499C338.504 251.509 338.504 251.52 338.504 251.53C338.504 251.541 338.504 251.551 338.504 251.562C338.504 251.572 338.504 251.583 338.504 251.593C338.504 251.604 338.504 251.614 338.504 251.625C338.504 251.635 338.504 251.646 338.504 251.656C338.504 251.667 338.504 251.677 338.504 251.688C338.504 251.698 338.504 251.709 338.504 251.719C338.504 251.73 338.504 251.74 338.504 251.75C338.504 251.761 338.504 251.771 338.504 251.782C338.504 251.792 338.504 251.803 338.504 251.813C338.504 251.824 338.504 251.834 338.504 251.845C338.504 251.855 338.504 251.865 338.504 251.876C338.504 251.886 338.504 251.897 338.504 251.907C338.504 251.918 338.504 251.928 338.504 251.938C338.504 251.949 338.504 251.959 338.504 251.97C338.504 251.98 338.504 251.99 338.504 252.001C338.504 252.011 338.504 252.022 338.504 252.032C338.504 252.042 338.504 252.053 338.504 252.063C338.504 252.074 338.504 252.084 338.504 252.094C338.504 252.105 338.504 252.115 338.504 252.126C338.504 252.136 338.504 252.146 338.504 252.157C338.504 252.167 338.504 252.177 338.504 252.188C338.504 252.198 338.504 252.208 338.504 252.219C338.504 252.229 338.504 252.24 338.504 252.25C338.504 252.26 338.504 252.271 338.504 252.281C338.504 252.291 338.504 252.302 338.504 252.312C338.504 252.322 338.504 252.333 338.504 252.343C338.504 252.353 338.504 252.364 338.504 252.374C338.504 252.384 338.504 252.394 338.504 252.405C338.504 252.415 338.504 252.425 338.504 252.436C338.504 252.446 338.504 252.456 338.504 252.467C338.504 252.477 338.504 252.487 338.504 252.497C338.504 252.508 338.504 252.518 338.504 252.528C338.504 252.539 338.504 252.549 338.504 252.559C338.504 252.569 338.504 252.58 338.504 252.59C338.504 252.6 338.504 252.611 338.504 252.621C338.504 252.631 338.504 252.641 338.504 252.652C338.504 252.662 338.504 252.672 338.504 252.682C338.504 252.693 338.504 252.703 338.504 252.713C338.504 252.723 338.504 252.734 338.504 252.744C338.504 252.754 338.504 252.764 338.504 252.774C338.504 252.785 338.504 252.795 338.504 252.805C338.504 252.815 338.504 252.826 338.504 252.836C338.504 252.846 338.504 252.856 338.504 252.866C338.504 252.877 338.504 252.887 338.504 252.897C338.504 252.907 338.504 252.917 338.504 252.928C338.504 252.938 338.504 252.948 338.504 252.958C338.504 252.968 338.504 252.978 338.504 252.989C338.504 252.999 338.504 253.009 338.504 253.019C338.504 253.029 338.504 253.039 338.504 253.05C338.504 253.06 338.504 253.07 338.504 253.08C338.504 253.09 338.504 253.1 338.504 253.111C338.504 253.121 338.504 253.131 338.504 253.141C338.504 253.151 338.504 253.161 338.504 253.171C338.504 253.182 338.504 253.192 338.504 253.202C338.504 253.212 338.504 253.222 338.504 253.232C338.504 253.242 338.504 253.252 338.504 253.263C338.504 253.273 338.504 253.283 338.504 253.293C338.504 253.303 338.504 253.313 338.504 253.323C338.504 253.333 338.504 253.343 338.504 253.353C338.504 253.364 338.504 253.374 338.504 253.384C338.504 253.394 338.504 253.404 338.504 253.414C338.504 253.424 338.504 253.434 338.504 253.444C338.504 253.454 338.504 253.464 338.504 253.474C338.504 253.484 338.504 253.494 338.504 253.505C338.504 253.515 338.504 253.525 338.504 253.535C338.504 253.545 338.504 253.555 338.504 253.565C338.504 253.575 338.504 253.585 338.504 253.595C338.504 253.605 338.504 253.615 338.504 253.625C338.504 253.635 338.504 253.645 338.504 253.655C338.504 253.665 338.504 253.675 338.504 253.685C338.504 253.695 338.504 253.705 338.504 253.715C338.504 253.725 338.504 253.735 338.504 253.745C338.504 253.755 338.504 253.765 338.504 253.775C338.504 253.785 338.504 253.795 338.504 253.805C338.504 253.815 338.504 253.825 338.504 253.835C338.504 253.845 338.504 253.855 338.504 253.865C338.504 253.875 338.504 253.885 338.504 253.895C338.504 253.905 338.504 253.915 338.504 253.925C338.504 253.935 338.504 253.945 338.504 253.955C338.504 253.965 338.504 253.974 338.504 253.984C338.504 253.994 338.504 254.004 338.504 254.014C338.504 254.024 338.504 254.034 338.504 254.044C338.504 254.054 338.504 254.064 338.504 254.074C338.504 254.084 338.504 254.094 338.504 254.104C338.504 254.113 338.504 254.123 338.504 254.133C338.504 254.143 338.504 254.153 338.504 254.163C338.504 254.173 338.504 254.183 338.504 254.193C338.504 254.203 338.504 254.212 338.504 254.222C338.504 254.232 338.504 254.242 338.504 254.252C338.504 254.262 338.504 254.272 338.504 254.282C338.504 254.291 338.504 254.301 338.504 254.311C338.504 254.321 338.504 254.331 338.504 254.341C338.504 254.351 338.504 254.36 338.504 254.37C338.504 254.38 338.504 254.39 338.504 254.4C338.504 254.41 338.504 254.419 338.504 254.429C338.504 254.439 338.504 254.449 338.504 254.459C338.504 254.469 338.504 254.478 338.504 254.488C338.504 254.498 338.504 254.508 338.504 254.518C338.504 254.528 338.504 254.537 338.504 254.547C338.504 254.557 338.504 254.567 338.504 254.577C338.504 254.586 338.504 254.596 338.504 254.606C338.504 254.616 338.504 254.626 338.504 254.635C338.504 254.645 338.504 254.655 338.504 254.665C338.504 254.674 338.504 254.684 338.504 254.694C338.504 254.704 338.504 254.714 338.504 254.723C338.504 254.733 338.504 254.743 338.504 254.753C338.504 254.762 338.504 254.772 338.504 254.782C338.504 254.792 338.504 254.801 338.504 254.811C338.504 254.821 338.504 254.831 338.504 254.84C338.504 254.85 338.504 254.86 338.504 254.869C338.504 254.879 338.504 254.889 338.504 254.899C338.504 254.908 338.504 254.918 338.504 254.928C338.504 254.937 338.504 254.947 338.504 254.957C338.504 254.967 338.504 254.976 338.504 254.986C338.504 254.996 338.504 255.005 338.504 255.015C338.504 255.025 338.504 255.034 338.504 255.044C338.504 255.054 338.504 255.064 338.504 255.073C338.504 255.083 338.504 255.093 338.504 255.102C338.504 255.112 338.504 255.122 338.504 255.131C338.504 255.141 338.504 255.151 338.504 255.16C338.504 255.17 338.504 255.179 338.504 255.189C338.504 255.199 338.504 255.208 338.504 255.218C338.504 255.228 338.504 255.237 338.504 255.247C338.504 255.257 338.504 255.266 338.504 255.276C338.504 255.286 338.504 255.295 338.504 255.305C338.504 255.314 338.504 255.324 338.504 255.334C338.504 255.343 338.504 255.353 338.504 255.362C338.504 255.372 338.504 255.382 338.504 255.391C338.504 255.401 338.504 255.41 338.504 255.42C338.504 255.43 338.504 255.439 338.504 255.449C338.504 255.458 338.504 255.468 338.504 255.478C338.504 255.487 338.504 255.497 338.504 255.506C338.504 255.516 338.504 255.525 338.504 255.535C338.504 255.545 338.504 255.554 338.504 255.564C338.504 255.573 338.504 255.583 338.504 255.592C338.504 255.602 338.504 255.611 338.504 255.621C338.504 255.63 338.504 255.64 338.504 255.65C338.504 255.659 338.504 255.669 338.504 255.678C338.504 255.688 338.504 255.697 338.504 255.707C338.504 255.716 338.504 255.726 338.504 255.735C338.504 255.745 338.504 255.754 338.504 255.764C338.504 255.773 338.504 255.783 338.504 255.792C338.504 255.802 338.504 255.811 338.504 255.821C338.504 255.83 338.504 255.84 338.504 255.849C338.504 255.859 338.504 255.868 338.504 255.878C338.504 255.887 338.504 255.897 338.504 255.906C338.504 255.916 338.504 255.925 338.504 255.935C338.504 255.944 338.504 255.953 338.504 255.963C338.504 255.972 338.504 255.982 338.504 255.991C338.504 256.001 338.504 256.01 338.504 256.02C338.504 256.029 338.504 256.038 338.504 256.048C338.504 256.057 338.504 256.067 338.504 256.076C338.504 256.086 338.504 256.095 338.504 256.104C338.504 256.114 338.504 256.123 338.504 256.133C338.504 256.142 338.504 256.152 338.504 256.161C338.504 256.17 338.504 256.18 338.504 256.189C338.504 256.199 338.504 256.208 338.504 256.217C338.504 256.227 338.504 256.236 338.504 256.246C338.504 256.255 338.504 256.264 338.504 256.274C338.504 256.283 338.504 256.292 338.504 256.302C338.504 256.311 338.504 256.321 338.504 256.33C338.504 256.339 338.504 256.349 338.504 256.358C338.504 256.367 338.504 256.377 338.504 256.386C338.504 256.395 338.504 256.405 338.504 256.414C338.504 256.423 338.504 256.433 338.504 256.442C338.504 256.451 338.504 256.461 338.504 256.47C338.504 256.479 338.504 256.489 338.504 256.498C338.504 256.507 338.504 256.517 338.504 256.526C338.504 256.535 338.504 256.545 338.504 256.554C338.504 256.563 338.504 256.573 338.504 256.582C338.504 256.591 338.504 256.6 338.504 256.61C338.504 256.619 338.504 256.628 338.504 256.638C338.504 256.647 338.504 256.656 338.504 256.665C338.504 256.675 338.504 256.684 338.504 256.693C338.504 256.703 338.504 256.712 338.504 256.721C338.504 256.73 338.504 256.74 338.504 256.749C338.504 256.758 338.504 256.767 338.504 256.777C338.504 256.786 338.504 256.795 338.504 256.804C338.504 256.814 338.504 256.823 338.504 256.832C338.504 256.841 338.504 256.851 338.504 256.86C338.504 256.869 338.504 256.878 338.504 256.887C338.504 256.897 338.504 256.906 338.504 256.915C338.504 256.924 338.504 256.934 338.504 256.943C338.504 256.952 338.504 256.961 338.504 256.97C338.504 256.98 338.504 256.989 338.504 256.998C338.504 257.007 338.504 257.016 338.504 257.025C338.504 257.035 338.504 257.044 338.504 257.053C338.504 257.062 338.504 257.071 338.504 257.081C338.504 257.09 338.504 257.099 338.504 257.108C338.504 257.117 338.504 257.126 338.504 257.136C338.504 257.145 338.504 257.154 338.504 257.163C338.504 257.172 338.504 257.181 338.504 257.19C338.504 257.2 338.504 257.209 338.504 257.218C338.504 257.227 338.504 257.236 338.504 257.245C338.504 257.254 338.504 257.264 338.504 257.273C338.504 257.282 338.504 257.291 338.504 257.3C338.504 257.309 338.504 257.318 338.504 257.327C338.504 257.336 338.504 257.346 338.504 257.355C338.504 257.364 338.504 257.373 338.504 257.382C338.504 257.391 338.504 257.4 338.504 257.409C338.504 257.418 338.504 257.427 338.504 257.436C338.504 257.446 338.504 257.455 338.504 257.464C338.504 257.473 338.504 257.482 338.504 257.491C338.504 257.5 338.504 257.509 338.504 257.518C338.504 257.527 338.504 257.536 338.504 257.545C338.504 257.554 338.504 257.563 338.504 257.572C338.504 257.581 338.504 257.59 338.504 257.599C338.504 257.609 338.504 257.618 338.504 257.627C338.504 257.636 338.504 257.645 338.504 257.654C338.504 257.663 338.504 257.672 338.504 257.681C338.504 257.69 338.504 257.699 338.504 257.708C338.504 257.717 338.504 257.726 338.504 257.735C338.504 257.744 338.504 257.753 338.504 257.762C338.504 257.771 338.504 257.78 338.504 257.789C338.504 257.798 338.504 257.807 338.504 257.816C338.504 257.825 338.504 257.834 338.504 257.843C338.504 257.852 338.504 257.861 338.504 257.87C338.504 257.878 338.504 257.887 338.504 257.896C338.504 257.905 338.504 257.914 338.504 257.923C338.504 257.932 338.504 257.941 338.504 257.95C338.504 257.959 338.504 257.968 338.504 257.977C338.504 257.986 338.504 257.995 338.504 258.004C338.504 258.013 338.504 258.022 338.504 258.03C338.504 258.039 338.504 258.048 338.504 258.057C338.504 258.066 338.504 258.075 338.504 258.084C338.504 258.093 338.504 258.102 338.504 258.111C338.504 258.12 338.504 258.128 338.504 258.137C338.504 258.146 338.504 258.155 338.504 258.164C338.504 258.173 338.504 258.182 338.504 258.191C338.504 258.2 338.504 258.208 338.504 258.217C338.504 258.226 338.504 258.235 338.504 258.244C338.504 258.253 338.504 258.262 338.504 258.271C338.504 258.279 338.504 258.288 338.504 258.297C338.504 258.306 338.504 258.315 338.504 258.324C338.504 258.332 338.504 258.341 338.504 258.35C338.504 258.359 338.504 258.368 338.504 258.377C338.504 258.385 338.504 258.394 338.504 258.403C338.504 258.412 338.504 258.421 338.504 258.43C338.504 258.438 338.504 258.447 338.504 258.456C338.504 258.465 338.504 258.474 338.504 258.482C338.504 258.491 338.504 258.5 338.504 258.509C338.504 258.518 338.504 258.526 338.504 258.535C338.504 258.544 338.504 258.553 338.504 258.562C338.504 258.57 338.504 258.579 338.504 258.588C338.504 258.597 338.504 258.605 338.504 258.614C338.504 258.623 338.504 258.632 338.504 258.64C338.504 258.649 338.504 258.658 338.504 258.667C338.504 258.675 338.504 258.684 338.504 258.693C338.504 258.702 338.504 258.71 338.504 258.719C338.504 258.728 338.504 258.737 338.504 258.745C338.504 258.754 338.504 258.763 338.504 258.772C338.504 258.78 338.504 258.789 338.504 258.798C338.504 258.806 338.504 258.815 338.504 258.824C338.504 258.833 338.504 258.841 338.504 258.85C338.504 258.859 338.504 258.867 338.504 258.876C338.504 258.885 338.504 258.893 338.504 258.902C338.504 258.911 338.504 258.92 338.504 258.928C338.504 258.937 338.504 258.946 338.504 258.954C338.504 258.963 338.504 258.972 338.504 258.98C338.504 258.989 338.504 258.998 338.504 259.006C338.504 259.015 338.504 259.024 338.504 259.032C338.504 259.041 338.504 259.05 338.504 259.058C338.504 259.067 338.504 259.075 338.504 259.084C338.504 259.093 338.504 259.101 338.504 259.11C338.504 259.119 338.504 259.127 338.504 259.136C338.504 259.144 338.504 259.153 338.504 259.162C338.504 259.17 338.504 259.179 338.504 259.188C338.504 259.196 338.504 259.205 338.504 259.213C338.504 259.222 338.504 259.231 338.504 259.239C338.504 259.248 338.504 259.256 338.504 259.265C338.504 259.274 338.504 259.282 338.504 259.291C338.504 259.299 338.504 259.308 338.504 259.316C338.504 259.325 338.504 259.334 338.504 259.342C338.504 259.351 338.504 259.359 338.504 259.368C338.504 259.376 338.504 259.385 338.504 259.393C338.504 259.402 338.504 259.411 338.504 259.419C338.504 259.428 338.504 259.436 338.504 259.445C338.504 259.453 338.504 259.462 338.504 259.47C338.504 259.479 338.504 259.487 338.504 259.496C338.504 259.504 338.504 259.513 338.504 259.522C338.504 259.53 338.504 259.539 338.504 259.547C338.504 259.556 338.504 259.564 338.504 259.573C338.504 259.581 338.504 259.59 338.504 259.598C338.504 259.607 338.504 259.615 338.504 259.624C338.504 259.632 338.504 259.641 338.504 259.649C338.504 259.657 338.504 259.666 338.504 259.674C338.504 259.683 338.504 259.691 338.504 259.7C338.504 259.708 338.504 259.717 338.504 259.725C338.504 259.734 338.504 259.742 338.504 259.751C338.504 259.759 338.504 259.767 338.504 259.776C338.504 259.784 338.504 259.793 338.504 259.801C338.504 259.81 338.504 259.818 338.504 259.827C338.504 259.835 338.504 259.843 338.504 259.852C338.504 259.86 338.504 259.869 338.504 259.877C338.504 259.886 338.504 259.894 338.504 259.902C338.504 259.911 338.504 259.919 338.504 259.928C338.504 259.936 338.504 259.944 338.504 259.953C338.504 259.961 338.504 259.97 338.504 259.978C338.504 259.986 338.504 259.995 338.504 260.003C338.504 260.011 338.504 260.02 338.504 260.028C338.504 260.037 338.504 260.045 338.504 260.053C338.504 260.062 338.504 260.07 338.504 260.078C338.504 260.087 338.504 260.095 338.504 260.103C338.504 260.112 338.504 260.12 338.504 260.129C338.504 260.137 338.504 260.145 338.504 260.154C338.504 260.162 338.504 260.17 338.504 260.179C338.504 260.187 338.504 260.195 338.504 260.204C338.504 260.212 338.504 260.22 338.504 260.229C338.504 260.237 338.504 260.245 338.504 260.253C338.504 260.262 338.504 260.27 338.504 260.278C338.504 260.287 338.504 260.295 338.504 260.303C338.504 260.312 338.504 260.32 338.504 260.328C338.504 260.336 338.504 260.345 338.504 260.353C338.504 260.361 338.504 260.37 338.504 260.378C338.504 260.386 338.504 260.394 338.504 260.403C338.504 260.411 338.504 260.419 338.504 260.427C338.504 260.436 338.504 260.444 338.504 260.452C338.504 260.46 338.504 260.469 338.504 260.477C338.504 260.485 338.504 260.493 338.504 260.502C338.504 260.51 338.504 260.518 338.504 260.526C338.504 260.535 338.504 260.543 338.504 260.551C338.504 260.559 338.504 260.568 338.504 260.576C338.504 260.584 338.504 260.592 338.504 260.6C338.504 260.609 338.504 260.617 338.504 260.625C338.504 260.633 338.504 260.641 338.504 260.65C338.504 260.658 338.504 260.666 338.504 260.674C338.504 260.682 338.504 260.691 338.504 260.699C338.504 260.707 338.504 260.715 338.504 260.723C338.504 260.731 338.504 260.74 338.504 260.748C338.504 260.756 338.504 260.764 338.504 260.772C338.504 260.78 338.504 260.789 338.504 260.797C338.504 260.805 338.504 260.813 338.504 260.821C338.504 260.829 338.504 260.837 338.504 260.846C338.504 260.854 338.504 260.862 338.504 260.87C338.504 260.878 338.504 260.886 338.504 260.894C338.504 260.903 338.504 260.911 338.504 260.919C338.504 260.927 338.504 260.935 338.504 260.943C338.504 260.951 338.504 260.959 338.504 260.967C338.504 260.976 338.504 260.984 338.504 260.992C338.504 261 338.504 261.008 338.504 261.016C338.504 261.024 338.504 261.032 338.504 261.04C338.504 261.048 338.504 261.056 338.504 261.065C338.504 261.073 338.504 261.081 338.504 261.089C338.504 261.097 338.504 261.105 338.504 261.113C338.504 261.121 338.504 261.129 338.504 261.137C338.504 261.145 338.504 261.153 338.504 261.161C338.504 261.169 338.504 261.177 338.504 261.185C338.504 261.193 338.504 261.201 338.504 261.209C338.504 261.218 338.504 261.226 338.504 261.234C338.504 261.242 338.504 261.25 338.504 261.258C338.504 261.266 338.504 261.274 338.504 261.282C338.504 261.29 338.504 261.298 338.504 261.306C338.504 261.314 338.504 261.322 338.504 261.33C338.504 261.338 338.504 261.346 338.504 261.354C338.504 261.362 338.504 261.37 338.504 261.378C338.504 261.386 338.504 261.394 338.504 261.402C338.504 261.41 338.504 261.418 338.504 261.425C338.504 261.433 338.504 261.441 338.504 261.449C338.504 261.457 338.504 261.465 338.504 261.473C338.504 261.481 338.504 261.489 338.504 261.497C338.504 261.505 338.504 261.513 338.504 261.521C338.504 261.529 338.504 261.537 338.504 261.545C338.504 261.553 338.504 261.561 338.504 261.569C338.504 261.576 338.504 261.584 338.504 261.592C338.504 261.6 338.504 261.608 338.504 261.616C338.504 261.624 338.504 261.632 338.504 261.64C338.504 261.648 338.504 261.656 338.504 261.663C338.504 261.671 338.504 261.679 338.504 261.687C338.504 261.695 338.504 261.703 338.504 261.711C338.504 261.719 338.504 261.727 338.504 261.734C338.504 261.742 338.504 261.75 338.504 261.758C338.504 261.766 338.504 261.774 338.504 261.782C338.504 261.79 338.504 261.797 338.504 261.805C338.504 261.813 338.504 261.821 338.504 261.829C338.504 261.837 338.504 261.844 338.504 261.852C338.504 261.86 338.504 261.868 338.504 261.876C338.504 261.884 338.504 261.891 338.504 261.899C338.504 261.907 338.504 261.915 338.504 261.923C338.504 261.931 338.504 261.938 338.504 261.946C338.504 261.954 338.504 261.962 338.504 261.97C338.504 261.977 338.504 261.985 338.504 261.993C338.504 262.001 338.504 262.009 338.504 262.016C338.504 262.024 338.504 262.032 338.504 262.04C338.504 262.048 338.504 262.055 338.504 262.063C338.504 262.071 338.504 262.079 338.504 262.086C338.504 262.094 338.504 262.102 338.504 262.11C338.504 262.117 338.504 262.125 338.504 262.133C338.504 262.141 338.504 262.149 338.504 262.156C338.504 262.164 338.504 262.172 338.504 262.179C338.504 262.187 338.504 262.195 338.504 262.203C338.504 262.21 338.504 262.218 338.504 262.226C338.504 262.234 338.504 262.241 338.504 262.249C338.504 262.257 338.504 262.264 338.504 262.272C338.504 262.28 338.504 262.288 338.504 262.295C338.504 262.303 338.504 262.311 338.504 262.318C338.504 262.326 338.504 262.334 338.504 262.342C338.504 262.349 338.504 262.357 338.504 262.365C338.504 262.372 338.504 262.38 338.504 262.388C338.504 262.395 338.504 262.403 338.504 262.411C338.504 262.418 338.504 262.426 338.504 262.434C338.504 262.441 338.504 262.449 338.504 262.457C338.504 262.464 338.504 262.472 338.504 262.48C338.504 262.487 338.504 262.495 338.504 262.502C338.504 262.51 338.504 262.518 338.504 262.525C338.504 262.533 338.504 262.541 338.504 262.548C338.504 262.556 338.504 262.564 338.504 262.571C338.504 262.579 338.504 262.586 338.504 262.594C338.504 262.602 338.504 262.609 338.504 262.617C338.504 262.624 338.504 262.632 338.504 262.64C338.504 262.647 338.504 262.655 338.504 262.662C338.504 262.67 338.504 262.678 338.504 262.685C338.504 262.693 338.504 262.7 338.504 262.708C338.504 262.715 338.504 262.723 338.504 262.731C338.504 262.738 338.504 262.746 338.504 262.753C338.504 262.761 338.504 262.768 338.504 262.776C338.504 262.784 338.504 262.791 338.504 262.799C338.504 262.806 338.504 262.814 338.504 262.821C338.504 262.829 338.504 262.836 338.504 262.844C338.504 262.851 338.504 262.859 338.504 262.866C338.504 262.874 338.504 262.882 338.504 262.889C338.504 262.897 338.504 262.904 338.504 262.912C338.504 262.919 338.504 262.927 338.504 262.934C338.504 262.942 338.504 262.949 338.504 262.957C338.504 262.964 338.504 262.972 338.504 262.979C338.504 262.987 338.504 262.994 338.504 263.002C338.504 263.009 338.504 263.017 338.504 263.024C338.504 263.032 338.504 263.039 338.504 263.046C338.504 263.054 338.504 263.061 338.504 263.069C338.504 263.076 338.504 263.084 338.504 263.091C338.504 263.099 338.504 263.106 338.504 263.114C338.504 263.121 338.504 263.128 338.504 263.136C338.504 263.143 338.504 263.151 338.504 263.158C338.504 263.166 338.504 263.173 338.504 263.181C338.504 263.188 338.504 263.195 338.504 263.203C338.504 263.21 338.504 263.218 338.504 263.225C338.504 263.232 338.504 263.24 338.504 263.247C338.504 263.255 338.504 263.262 338.504 263.269C338.504 263.277 338.504 263.284 338.504 263.292C338.504 263.299 338.504 263.306 338.504 263.314C338.504 263.321 338.504 263.329 338.504 263.336C338.504 263.343 338.504 263.351 338.504 263.358C338.504 263.365 338.504 263.373 338.504 263.38C338.504 263.388 338.504 263.395 338.504 263.402C338.504 263.41 338.504 263.417 338.504 263.424C338.504 263.432 338.504 263.439 338.504 263.446C338.504 263.454 338.504 263.461 338.504 263.468C338.504 263.476 338.504 263.483 338.504 263.49C338.504 263.498 338.504 263.505 338.504 263.512C338.504 263.52 338.504 263.527 338.504 263.534C338.504 263.542 338.504 263.549 338.504 263.556C338.504 263.564 338.504 263.571 338.504 263.578C338.504 263.585 338.504 263.593 338.504 263.6H340.504ZM340.504 249.6V205.6H338.504V249.6H340.504ZM340.504 205.6C340.504 192.477 338.24 182.968 333.466 177.352L331.942 178.648C336.236 183.699 338.504 192.59 338.504 205.6H340.504ZM333.466 177.352C328.67 171.71 320.996 169 310.704 169V171C320.679 171 327.672 173.624 331.942 178.648L333.466 177.352ZM310.704 169H295.504V171H310.704V169ZM294.504 170V284H296.504V170H294.504ZM295.504 283H251.504V285H295.504V283ZM252.504 284V3.99998H250.504V284H252.504ZM251.504 4.99998H317.904V2.99998H251.504V4.99998ZM317.904 4.99998C340.714 4.99998 356.918 10.3083 366.779 20.6887L368.229 19.3112C357.824 8.35834 340.962 2.99998 317.904 2.99998V4.99998ZM366.788 20.6981C376.938 31.1083 382.104 46.9438 382.104 68.4H384.104C384.104 46.6562 378.87 30.2251 368.22 19.3019L366.788 20.6981ZM382.104 68.4V90.4H384.104V68.4H382.104ZM382.104 90.4C382.104 118.975 372.602 137.454 353.877 146.296L354.731 148.104C374.407 138.813 384.104 119.425 384.104 90.4H382.104ZM353.929 148.127C364.897 152.566 372.279 159.841 376.171 169.959L378.038 169.241C373.929 158.559 366.112 150.9 354.68 146.273L353.929 148.127ZM376.183 169.988C380.384 179.965 382.504 192.225 382.504 206.8H384.504C384.504 192.042 382.359 179.502 378.026 169.212L376.183 169.988ZM382.504 206.8V250H384.504V206.8H382.504ZM382.504 250C382.504 256.957 382.772 263.125 383.309 268.5L385.299 268.3C384.77 263.008 384.504 256.909 384.504 250H382.504ZM383.31 268.505C383.854 273.674 385.213 278.963 387.376 284.371L389.233 283.629C387.129 278.37 385.821 273.26 385.299 268.295L383.31 268.505ZM388.304 283H343.504V285H388.304V283ZM294.504 44V130H296.504V44H294.504ZM295.504 131H312.704V129H295.504V131ZM312.704 131C321.14 131 327.817 128.82 332.59 124.328L331.219 122.872C326.925 126.913 320.802 129 312.704 129V131ZM332.569 124.347C337.696 119.789 340.104 111.685 340.104 100.4H338.104C338.104 111.515 335.712 118.877 331.24 122.853L332.569 124.347ZM340.104 100.4V72.8H338.104V100.4H340.104ZM340.104 72.8C340.104 62.5873 338.231 54.9668 334.276 50.1643L332.732 51.4357C336.244 55.6998 338.104 62.746 338.104 72.8H340.104ZM334.299 50.1925C330.581 45.3306 324.63 43 316.704 43V45C324.245 45 329.495 47.2027 332.71 51.4074L334.299 50.1925ZM316.704 43H295.504V45H316.704V43ZM596.551 3.99998H597.551V2.99998H596.551V3.99998ZM596.551 43.2L597.474 43.5843L597.551 43.3998V43.2H596.551ZM512.951 244L512.028 243.616L511.452 245H512.951V244ZM596.551 244H597.551V243H596.551V244ZM596.551 284V285H597.551V284H596.551ZM467.751 284H466.751V285H467.751V284ZM467.751 244.8L466.828 244.416L466.751 244.6V244.8H467.751ZM551.351 44L552.274 44.3843L552.851 43H551.351V44ZM471.751 44H470.751V45H471.751V44ZM471.751 3.99998V2.99998H470.751V3.99998H471.751ZM595.551 3.99998V43.2H597.551V3.99998H595.551ZM595.628 42.8156L512.028 243.616L513.874 244.384L597.474 43.5843L595.628 42.8156ZM512.951 245H596.551V243H512.951V245ZM595.551 244V284H597.551V244H595.551ZM596.551 283H467.751V285H596.551V283ZM468.751 284V244.8H466.751V284H468.751ZM468.674 245.184L552.274 44.3843L550.428 43.6156L466.828 244.416L468.674 245.184ZM551.351 43H471.751V45H551.351V43ZM472.751 44V3.99998H470.751V44H472.751ZM471.751 4.99998H596.551V2.99998H471.751V4.99998ZM668.998 241.2L668.269 241.884L668.291 241.907L668.314 241.93L668.998 241.2ZM702.198 241.2L701.491 240.493L701.491 240.493L702.198 241.2ZM702.198 47.2L701.469 47.8839L701.491 47.9075L701.514 47.9295L702.198 47.2ZM668.998 47.2L669.705 47.9071L669.705 47.9071L668.998 47.2ZM636.198 19.2L636.921 19.8909L636.929 19.8829L636.198 19.2ZM735.398 19.2L734.668 19.8829L734.675 19.8908L735.398 19.2ZM735.398 269.2L736.121 269.891L736.129 269.883L735.398 269.2ZM636.198 269.2L635.468 269.883L635.475 269.891L636.198 269.2ZM661.998 219.6C661.998 229.816 664.005 237.336 668.269 241.884L669.728 240.516C665.991 236.53 663.998 229.651 663.998 219.6H661.998ZM668.314 241.93C672.8 246.135 678.661 248.2 685.798 248.2V246.2C679.069 246.2 673.73 244.265 669.682 240.47L668.314 241.93ZM685.798 248.2C692.933 248.2 698.677 246.135 702.905 241.907L701.491 240.493C697.719 244.265 692.53 246.2 685.798 246.2V248.2ZM702.905 241.907C707.453 237.36 709.598 229.829 709.598 219.6H707.598C707.598 229.638 705.477 236.507 701.491 240.493L702.905 241.907ZM709.598 219.6V68.4H707.598V219.6H709.598ZM709.598 68.4C709.598 58.1803 707.456 50.7588 702.882 46.4705L701.514 47.9295C705.473 51.6411 707.598 58.353 707.598 68.4H709.598ZM702.928 46.5161C698.704 42.0104 692.952 39.8 685.798 39.8V41.8C692.511 41.8 697.693 43.8562 701.469 47.8839L702.928 46.5161ZM685.798 39.8C678.642 39.8 672.774 42.0104 668.291 46.4929L669.705 47.9071C673.756 43.8563 679.087 41.8 685.798 41.8V39.8ZM668.291 46.4929C664.001 50.7826 661.998 58.1935 661.998 68.4H663.998C663.998 58.3398 665.995 51.6174 669.705 47.9071L668.291 46.4929ZM661.998 68.4V219.6H663.998V68.4H661.998ZM619.998 71.2C619.998 48.695 625.689 31.6455 636.921 19.8908L635.475 18.5091C623.774 30.7545 617.998 48.3717 617.998 71.2H619.998ZM636.929 19.8829C648.156 7.87254 664.391 1.8 685.798 1.8V-0.200002C664.005 -0.200002 647.174 5.99411 635.468 18.5171L636.929 19.8829ZM685.798 1.8C707.205 1.8 723.441 7.87254 734.668 19.8829L736.129 18.5171C724.422 5.99411 707.591 -0.200002 685.798 -0.200002V1.8ZM734.675 19.8908C745.907 31.6455 751.598 48.695 751.598 71.2H753.598C753.598 48.3717 747.822 30.7545 736.121 18.5091L734.675 19.8908ZM751.598 71.2V216.8H753.598V71.2H751.598ZM751.598 216.8C751.598 239.303 745.908 256.493 734.668 268.517L736.129 269.883C747.822 257.374 753.598 239.63 753.598 216.8H751.598ZM734.675 268.509C723.45 280.257 707.211 286.2 685.798 286.2V288.2C707.585 288.2 724.413 282.143 736.121 269.891L734.675 268.509ZM685.798 286.2C664.385 286.2 648.147 280.257 636.921 268.509L635.475 269.891C647.183 282.143 664.011 288.2 685.798 288.2V286.2ZM636.929 268.517C625.688 256.493 619.998 239.303 619.998 216.8H617.998C617.998 239.63 623.775 257.374 635.468 269.883L636.929 268.517ZM619.998 216.8V71.2H617.998V216.8H619.998ZM827.592 241.2L826.862 241.884L826.884 241.907L826.908 241.93L827.592 241.2ZM860.792 241.2L860.085 240.493L860.085 240.493L860.792 241.2ZM860.792 47.2L860.062 47.8839L860.084 47.9075L860.108 47.9295L860.792 47.2ZM827.592 47.2L828.299 47.9071L828.299 47.9071L827.592 47.2ZM794.792 19.2L795.515 19.8909L795.522 19.8829L794.792 19.2ZM893.992 19.2L893.261 19.8829L893.269 19.8908L893.992 19.2ZM893.992 269.2L894.715 269.891L894.722 269.883L893.992 269.2ZM794.792 269.2L794.061 269.883L794.069 269.891L794.792 269.2ZM820.592 219.6C820.592 229.816 822.599 237.336 826.862 241.884L828.321 240.516C824.585 236.53 822.592 229.651 822.592 219.6H820.592ZM826.908 241.93C831.394 246.135 837.255 248.2 844.392 248.2V246.2C837.662 246.2 832.324 244.265 828.276 240.47L826.908 241.93ZM844.392 248.2C851.527 248.2 857.271 246.135 861.499 241.907L860.085 240.493C856.313 244.265 851.124 246.2 844.392 246.2V248.2ZM861.499 241.907C866.046 237.36 868.192 229.829 868.192 219.6H866.192C866.192 229.638 864.071 236.507 860.085 240.493L861.499 241.907ZM868.192 219.6V68.4H866.192V219.6H868.192ZM868.192 68.4C868.192 58.1803 866.05 50.7588 861.476 46.4705L860.108 47.9295C864.067 51.6411 866.192 58.353 866.192 68.4H868.192ZM861.521 46.5161C857.297 42.0104 851.546 39.8 844.392 39.8V41.8C851.104 41.8 856.286 43.8562 860.062 47.8839L861.521 46.5161ZM844.392 39.8C837.236 39.8 831.367 42.0104 826.885 46.4929L828.299 47.9071C832.35 43.8563 837.681 41.8 844.392 41.8V39.8ZM826.885 46.4929C822.595 50.7826 820.592 58.1935 820.592 68.4H822.592C822.592 58.3398 824.589 51.6174 828.299 47.9071L826.885 46.4929ZM820.592 68.4V219.6H822.592V68.4H820.592ZM778.592 71.2C778.592 48.695 784.283 31.6455 795.515 19.8908L794.069 18.5091C782.368 30.7545 776.592 48.3717 776.592 71.2H778.592ZM795.522 19.8829C806.749 7.87254 822.985 1.8 844.392 1.8V-0.200002C822.599 -0.200002 805.768 5.99411 794.061 18.5171L795.522 19.8829ZM844.392 1.8C865.799 1.8 882.034 7.87254 893.261 19.8829L894.722 18.5171C883.016 5.99411 866.185 -0.200002 844.392 -0.200002V1.8ZM893.269 19.8908C904.501 31.6455 910.192 48.695 910.192 71.2H912.192C912.192 48.3717 906.416 30.7545 894.715 18.5091L893.269 19.8908ZM910.192 71.2V216.8H912.192V71.2H910.192ZM910.192 216.8C910.192 239.303 904.502 256.493 893.261 268.517L894.722 269.883C906.415 257.374 912.192 239.63 912.192 216.8H910.192ZM893.269 268.509C882.043 280.257 865.805 286.2 844.392 286.2V288.2C866.179 288.2 883.007 282.143 894.715 269.891L893.269 268.509ZM844.392 286.2C822.979 286.2 806.741 280.257 795.515 268.509L794.069 269.891C805.777 282.143 822.605 288.2 844.392 288.2V286.2ZM795.522 268.517C784.282 256.493 778.592 239.303 778.592 216.8H776.592C776.592 239.63 782.368 257.374 794.061 269.883L795.522 268.517ZM778.592 216.8V71.2H776.592V216.8H778.592ZM1032.99 202.8L1032 202.961L1033.97 202.949L1032.99 202.8ZM1062.99 3.99998V2.99998H1062.13L1062 3.85076L1062.99 3.99998ZM1124.19 3.99998H1125.19V2.99998H1124.19V3.99998ZM1124.19 284V285H1125.19V284H1124.19ZM1082.59 284H1081.59V285H1082.59V284ZM1082.59 83.2H1083.59L1081.6 83.0503L1082.59 83.2ZM1052.19 284V285H1053.05L1053.17 284.15L1052.19 284ZM1010.59 284L1009.6 284.163L1009.74 285H1010.59V284ZM977.786 86L978.772 85.8366L976.786 86H977.786ZM977.786 284V285H978.786V284H977.786ZM939.386 284H938.386V285H939.386V284ZM939.386 3.99998V2.99998H938.386V3.99998H939.386ZM1000.59 3.99998L1001.57 3.83913L1001.44 2.99998H1000.59V3.99998ZM1033.97 202.949L1063.97 4.1492L1062 3.85076L1032 202.651L1033.97 202.949ZM1062.99 4.99998H1124.19V2.99998H1062.99V4.99998ZM1123.19 3.99998V284H1125.19V3.99998H1123.19ZM1124.19 283H1082.59V285H1124.19V283ZM1083.59 284V83.2H1081.59V284H1083.59ZM1081.6 83.0503L1051.2 283.85L1053.17 284.15L1083.57 83.3497L1081.6 83.0503ZM1052.19 283H1010.59V285H1052.19V283ZM1011.57 283.837L978.772 85.8366L976.799 86.1634L1009.6 284.163L1011.57 283.837ZM976.786 86V284H978.786V86H976.786ZM977.786 283H939.386V285H977.786V283ZM940.386 284V3.99998H938.386V284H940.386ZM939.386 4.99998H1000.59V2.99998H939.386V4.99998ZM999.599 4.16084L1032 202.961L1033.97 202.639L1001.57 3.83913L999.599 4.16084Z" fill="white" mask="url(#path-1-outside-1_422_508)"/>
</svg>
