<svg width="1125" height="288" viewBox="0 0 1125 288" fill="none" xmlns="http://www.w3.org/2000/svg">
<path d="M154.842 284H110.442L102.842 233.2H48.8419L41.2419 284H0.841895L45.6419 3.99998H110.042L154.842 284ZM54.4419 195.2H96.8419L75.6419 53.6L54.4419 195.2ZM175.333 3.99998H219.333V284H175.333V3.99998ZM343.504 284C342.971 282.133 342.438 280.4 341.904 278.8C341.371 277.2 340.838 275.2 340.304 272.8C340.038 270.4 339.771 267.333 339.504 263.6C339.504 259.867 339.504 255.2 339.504 249.6V205.6C339.504 192.533 337.238 183.333 332.704 178C328.171 172.667 320.838 170 310.704 170H295.504V284H251.504V3.99998H317.904C340.838 3.99998 357.371 9.33332 367.504 20C377.904 30.6667 383.104 46.8 383.104 68.4V90.4C383.104 119.2 373.504 138.133 354.304 147.2C365.504 151.733 373.104 159.2 377.104 169.6C381.371 179.733 383.504 192.133 383.504 206.8V250C383.504 256.933 383.771 263.067 384.304 268.4C384.838 273.467 386.171 278.667 388.304 284H343.504ZM295.504 44V130H312.704C320.971 130 327.371 127.867 331.904 123.6C336.704 119.333 339.104 111.6 339.104 100.4V72.8C339.104 62.6667 337.238 55.3333 333.504 50.8C330.038 46.2667 324.438 44 316.704 44H295.504ZM596.551 3.99998V43.2L512.951 244H596.551V284H467.751V244.8L551.351 44H471.751V3.99998H596.551ZM662.998 219.6C662.998 229.733 664.998 236.933 668.998 241.2C673.265 245.2 678.865 247.2 685.798 247.2C692.731 247.2 698.198 245.2 702.198 241.2C706.465 236.933 708.598 229.733 708.598 219.6V68.4C708.598 58.2667 706.465 51.2 702.198 47.2C698.198 42.9333 692.731 40.8 685.798 40.8C678.865 40.8 673.265 42.9333 668.998 47.2C664.998 51.2 662.998 58.2667 662.998 68.4V219.6ZM618.998 71.2C618.998 48.5333 624.731 31.2 636.198 19.2C647.665 6.93332 664.198 0.799998 685.798 0.799998C707.398 0.799998 723.931 6.93332 735.398 19.2C746.865 31.2 752.598 48.5333 752.598 71.2V216.8C752.598 239.467 746.865 256.933 735.398 269.2C723.931 281.2 707.398 287.2 685.798 287.2C664.198 287.2 647.665 281.2 636.198 269.2C624.731 256.933 618.998 239.467 618.998 216.8V71.2ZM821.592 219.6C821.592 229.733 823.592 236.933 827.592 241.2C831.859 245.2 837.459 247.2 844.392 247.2C851.325 247.2 856.792 245.2 860.792 241.2C865.059 236.933 867.192 229.733 867.192 219.6V68.4C867.192 58.2667 865.059 51.2 860.792 47.2C856.792 42.9333 851.325 40.8 844.392 40.8C837.459 40.8 831.859 42.9333 827.592 47.2C823.592 51.2 821.592 58.2667 821.592 68.4V219.6ZM777.592 71.2C777.592 48.5333 783.325 31.2 794.792 19.2C806.259 6.93332 822.792 0.799998 844.392 0.799998C865.992 0.799998 882.525 6.93332 893.992 19.2C905.459 31.2 911.192 48.5333 911.192 71.2V216.8C911.192 239.467 905.459 256.933 893.992 269.2C882.525 281.2 865.992 287.2 844.392 287.2C822.792 287.2 806.259 281.2 794.792 269.2C783.325 256.933 777.592 239.467 777.592 216.8V71.2ZM1032.99 202.8L1062.99 3.99998H1124.19V284H1082.59V83.2L1052.19 284H1010.59L977.786 86V284H939.386V3.99998H1000.59L1032.99 202.8Z" fill="white"/>
</svg>
