<svg width="109" height="27" viewBox="0 0 109 27" fill="none" xmlns="http://www.w3.org/2000/svg">
<path d="M10.57 26.56C7.91 26.56 5.69333 26.0117 3.92 24.915C2.14667 23.795 0.956667 22.29 0.35 20.4L6.335 16.935C7.15167 19.0117 8.62167 20.05 10.745 20.05C12.3317 20.05 13.125 19.63 13.125 18.79C13.125 18.5567 13.0667 18.3467 12.95 18.16C12.8333 17.9733 12.6117 17.81 12.285 17.67C11.9583 17.53 11.6667 17.425 11.41 17.355C11.1767 17.2617 10.7567 17.1333 10.15 16.97C9.54333 16.8067 9.08833 16.6783 8.785 16.585C3.90833 15.115 1.47 12.49 1.47 8.71C1.47 6.47 2.275 4.615 3.885 3.145C5.51833 1.675 7.65333 0.939999 10.29 0.939999C12.3667 0.939999 14.2217 1.43 15.855 2.41C17.5117 3.39 18.725 4.80167 19.495 6.645L13.685 10.04C13.0083 8.31333 11.8883 7.45 10.325 7.45C9.71833 7.45 9.25167 7.57833 8.925 7.835C8.62167 8.06833 8.47 8.37167 8.47 8.745C8.47 9.25833 8.73833 9.655 9.275 9.935C9.835 10.215 10.8967 10.5767 12.46 11.02C13.6267 11.37 14.5833 11.7083 15.33 12.035C16.0767 12.3383 16.8583 12.7817 17.675 13.365C18.4917 13.925 19.0983 14.66 19.495 15.57C19.915 16.4567 20.125 17.5067 20.125 18.72C20.125 21.2167 19.2617 23.1533 17.535 24.53C15.8317 25.8833 13.51 26.56 10.57 26.56ZM35.0027 1.5H42.0027V26H35.0027V16.97H29.0527V26H22.0527V1.5H29.0527V10.18H35.0027V1.5ZM52.5 19.56H61.6V26H45.5V1.5H61.425V7.87H52.5V10.53H60.55V16.83H52.5V19.56ZM70.4564 26L62.6514 1.5H70.3514L74.3764 17.075L78.4014 1.5H86.1014L78.2964 26H70.4564ZM100.622 26L99.7823 22.85H92.7123L91.8723 26H84.3473L92.1523 1.5H100.342L108.147 26H100.622ZM94.2173 17.25H98.2773L96.2473 9.725L94.2173 17.25Z" fill="white"/>
</svg>
